<?xml version="1.0" encoding="utf-8"?><svg viewBox="0 0 100 100" xmlns="http://www.w3.org/2000/svg" width="64px" height="64px" xmlns:xlink="http://www.w3.org/1999/xlink" style="width:100%;height:100%;background-size:initial;background-repeat-y:initial;background-repeat-x:initial;background-position-y:initial;background-position-x:initial;background-origin:initial;background-image:initial;background-color:rgb(255, 255, 255);background-clip:initial;background-attachment:initial;animation-play-state:paused" ><g class="ldl-scale" style="transform-origin:50% 50% 0px;transform:scale(0.8);animation-play-state:paused" ><path fill="#e15c64" d="M30.052 59.401l-9.988 25.833c-.273.706.444 1.39 1.136 1.084l9.4-4.158a.85.85 0 0 1 1.121.433l4.158 9.4c.306.692 1.297.669 1.57-.037l9.988-25.833c2.052-5.307-1.09-11.199-6.64-12.452a9.321 9.321 0 0 0-10.745 5.73z" style="fill:rgb(225, 92, 100);animation-play-state:paused" ></path>
<path fill="#e15c64" d="M68.946 59.401l9.988 25.833c.273.706-.444 1.39-1.136 1.084l-9.4-4.158a.85.85 0 0 0-1.121.433l-4.158 9.4c-.306.692-1.297.669-1.57-.037L51.56 66.123c-2.052-5.307 1.09-11.199 6.64-12.452a9.322 9.322 0 0 1 10.746 5.73z" style="fill:rgb(225, 92, 100);animation-play-state:paused" ></path>
<g style="animation-play-state:paused" ><path fill="#f47e5f" d="M51.918 8.268l2.671 2.545a2.78 2.78 0 0 0 2.92.581l3.442-1.329a2.782 2.782 0 0 1 3.545 1.468l1.494 3.374a2.781 2.781 0 0 0 2.476 1.654l3.689.089a2.782 2.782 0 0 1 2.713 2.713l.089 3.689a2.781 2.781 0 0 0 1.654 2.476l3.374 1.494a2.78 2.78 0 0 1 1.468 3.545l-1.329 3.442a2.78 2.78 0 0 0 .581 2.92L83.25 39.6a2.782 2.782 0 0 1 0 3.837l-2.545 2.671a2.78 2.78 0 0 0-.581 2.92l1.329 3.442a2.782 2.782 0 0 1-1.468 3.545l-3.374 1.494a2.781 2.781 0 0 0-1.654 2.476l-.089 3.689a2.782 2.782 0 0 1-2.713 2.713l-3.689.089a2.781 2.781 0 0 0-2.476 1.654l-1.494 3.374a2.78 2.78 0 0 1-3.545 1.468l-3.442-1.329a2.78 2.78 0 0 0-2.92.581l-2.671 2.545a2.782 2.782 0 0 1-3.837 0l-2.671-2.545a2.78 2.78 0 0 0-2.92-.581l-3.442 1.329a2.782 2.782 0 0 1-3.545-1.468l-1.494-3.374a2.781 2.781 0 0 0-2.476-1.654l-3.689-.089a2.782 2.782 0 0 1-2.713-2.713l-.089-3.689a2.781 2.781 0 0 0-1.654-2.476l-3.374-1.494a2.78 2.78 0 0 1-1.468-3.545l1.329-3.442a2.78 2.78 0 0 0-.581-2.92l-2.545-2.671a2.782 2.782 0 0 1 0-3.837l2.545-2.671a2.78 2.78 0 0 0 .581-2.92l-1.329-3.442a2.782 2.782 0 0 1 1.468-3.545l3.374-1.494a2.781 2.781 0 0 0 1.654-2.476l.089-3.689a2.782 2.782 0 0 1 2.713-2.713l3.689-.089a2.781 2.781 0 0 0 2.476-1.654l1.494-3.374a2.78 2.78 0 0 1 3.545-1.468l3.442 1.329a2.78 2.78 0 0 0 2.92-.581l2.671-2.545a2.78 2.78 0 0 1 3.837 0z" style="fill:rgb(244, 126, 95);animation-play-state:paused" ></path>
<circle fill="#f7b26a" r="22.55" cy="41.517" cx="50" style="fill:rgb(247, 178, 106);animation-play-state:paused" ></circle>
<path fill="#f5e169" d="M50.948 28.138l3.452 6.995c.154.312.451.528.796.578l7.719 1.122a1.056 1.056 0 0 1 .586 1.802l-5.586 5.445a1.057 1.057 0 0 0-.304.935l1.319 7.688a1.057 1.057 0 0 1-1.533 1.114l-6.904-3.63a1.055 1.055 0 0 0-.983 0l-6.904 3.63a1.057 1.057 0 0 1-1.533-1.114l1.319-7.688a1.055 1.055 0 0 0-.304-.935L36.5 38.634a1.056 1.056 0 0 1 .586-1.802l7.719-1.122c.344-.05.642-.266.796-.578l3.452-6.995a1.057 1.057 0 0 1 1.895.001z" style="fill:rgb(245, 225, 105);animation-play-state:paused" ></path></g>
<metadata xmlns:d="https://loading.io/stock/" style="animation-play-state:paused" ><d:name style="animation-play-state:paused" >award</d:name>


<d:tags style="animation-play-state:paused" >award,medal,champion,prize,corsage,badge,trophy,tribute,proof,certificate</d:tags>


<d:license style="animation-play-state:paused" >by</d:license>


<d:slug style="animation-play-state:paused" >x5xjvu</d:slug></metadata></g><!-- generated by https://loading.io/ --></svg>