<?xml version="1.0" encoding="utf-8"?><svg xml:space="preserve" viewBox="0 0 100 100" y="0" x="0" xmlns="http://www.w3.org/2000/svg" id="圖層_1" version="1.1" width="64px" height="64px" xmlns:xlink="http://www.w3.org/1999/xlink" style="width:100%;height:100%;background-size:initial;background-repeat-y:initial;background-repeat-x:initial;background-position-y:initial;background-position-x:initial;background-origin:initial;background-image:initial;background-color:rgb(255, 255, 255);background-clip:initial;background-attachment:initial;animation-play-state:paused" ><g class="ldl-scale" style="transform-origin:50% 50% 0px;transform:scale(0.8);animation-play-state:paused" ><path d="M28.8 42.7h11.6v10.6H28.8z" fill="#fff" style="fill:rgb(255, 255, 255);animation-play-state:paused" ></path>
<path d="M44.2 71.7h11.6v10.7H44.2z" fill="#fff" style="fill:rgb(255, 255, 255);animation-play-state:paused" ></path>
<path d="M44.2 57.2h11.6v10.7H44.2z" fill="#fff" style="fill:rgb(255, 255, 255);animation-play-state:paused" ></path>
<path d="M44.2 42.7h11.6v10.6H44.2z" fill="#fff" style="fill:rgb(255, 255, 255);animation-play-state:paused" ></path>
<path d="M28.8 57.2h11.6v10.7H28.8z" fill="#fff" style="fill:rgb(255, 255, 255);animation-play-state:paused" ></path>
<path d="M28.8 71.7h11.6v10.7H28.8z" fill="#fff" style="fill:rgb(255, 255, 255);animation-play-state:paused" ></path>
<path fill="#fff" d="M13.3 42.6v10.7h11.6V42.7H14.3c-.4 0-.7-.1-1-.1z" style="fill:rgb(255, 255, 255);animation-play-state:paused" ></path>
<path fill="#fff" d="M13.3 81.5c0 .5.4.9.9 1h10.7V71.7H13.3v9.8z" style="fill:rgb(255, 255, 255);animation-play-state:paused" ></path>
<path fill="#e0e0e0" d="M35.5 28.2V17.6c0-3.2-2.6-5.8-5.8-5.8s-5.8 2.6-5.8 5.8V28.2c0 3.2 2.6 5.8 5.8 5.8s5.8-2.6 5.8-5.8z" style="fill:rgb(39, 134, 211);animation-play-state:paused" ></path>
<path d="M13.3 57.2h11.6v10.7H13.3z" fill="#fff" style="fill:rgb(255, 255, 255);animation-play-state:paused" ></path>
<path fill="#fff" d="M75.1 82.4h10.7c.5 0 .9-.4.9-1v-9.8H75.1v10.8z" style="fill:rgb(255, 255, 255);animation-play-state:paused" ></path>
<path fill="#fff" d="M75.1 42.7v10.6h11.6V42.6c-.3.1-.6.1-1 .1H75.1z" style="fill:rgb(255, 255, 255);animation-play-state:paused" ></path>
<path d="M75.1 57.2h11.6v10.7H75.1z" fill="#fff" style="fill:rgb(255, 255, 255);animation-play-state:paused" ></path>
<path d="M59.7 42.7h11.6v10.6H59.7z" fill="#fff" style="fill:rgb(255, 255, 255);animation-play-state:paused" ></path>
<path d="M59.7 57.2h11.6v10.7H59.7z" fill="#fff" style="fill:rgb(255, 255, 255);animation-play-state:paused" ></path>
<path fill="#e0e0e0" d="M75.4 18.3v-.8c0-3.2-2.6-5.8-5.8-5.8-3.2 0-5.8 2.6-5.8 5.8V28.1c0 3.2 2.6 5.8 5.8 5.8 3.2 0 5.8-2.6 5.8-5.8v-9.8z" style="fill:rgb(39, 134, 211);animation-play-state:paused" ></path>
<path d="M59.7 71.7h11.6v10.7H59.7z" fill="#fff" style="fill:rgb(255, 255, 255);animation-play-state:paused" ></path>
<path fill="#333" d="M85.7 18.3h-6.3v-.8c0-5.4-4.4-9.8-9.8-9.8s-9.8 4.4-9.8 9.8v.8H39.5v-.8c0-5.4-4.4-9.8-9.8-9.8s-9.8 4.4-9.8 9.8v.8h-5.7c-3.7 0-6.8 3-6.8 6.8v56.4c0 3.7 3 6.8 6.8 6.8h71.5c3.7 0 6.8-3 6.8-6.8V25.1c0-3.7-3-6.8-6.8-6.8zM24.9 82.4H14.2c-.5 0-.9-.4-.9-1v-9.8h11.6v10.8zm0-14.5H13.3V57.2h11.6v10.7zm0-14.6H13.3V42.6c.3.1.6.1 1 .1h10.6v10.6zm-1-25.1V17.6c0-3.2 2.6-5.8 5.8-5.8s5.8 2.6 5.8 5.8V28.2c0 3.2-2.6 5.8-5.8 5.8s-5.8-2.6-5.8-5.8zm16.4 54.2H28.8V71.7h11.6v10.7zm0-14.5H28.8V57.2h11.6v10.7zm0-14.6H28.8V42.7h11.6v10.6zm15.5 29.1H44.2V71.7h11.6v10.7zm0-14.5H44.2V57.2h11.6v10.7zm0-14.6H44.2V42.7h11.6v10.6zm15.5 29.1H59.7V71.7h11.6v10.7zm0-14.5H59.7V57.2h11.6v10.7zm0-14.6H59.7V42.7h11.6v10.6zm-1.7-19.4c-3.2 0-5.8-2.6-5.8-5.8V17.5c0-3.2 2.6-5.8 5.8-5.8 3.2 0 5.8 2.6 5.8 5.8V28.1c0 3.3-2.6 5.8-5.8 5.8zm17.1 47.6c0 .5-.4.9-.9 1H75.1V71.7h11.6v9.8zm0-13.6H75.1V57.2h11.6v10.7zm0-14.6H75.1V42.7h10.6c.3 0 .7 0 1-.1v10.7z" style="fill:rgb(51, 51, 51);animation-play-state:paused" ></path>
<metadata xmlns:d="https://loading.io/stock/" style="animation-play-state:paused" ><d:name style="animation-play-state:paused" >calendar</d:name>
<d:tags style="animation-play-state:paused" >schedule,date,time,plan,agenda,journal,calendar,web application</d:tags>
<d:license style="animation-play-state:paused" >pro</d:license>
<d:slug style="animation-play-state:paused" >pzemvt</d:slug></metadata></g><!-- generated by https://loading.io/ --></svg>