<?xml version="1.0" encoding="utf-8"?><svg viewBox="0 0 100 100" xmlns="http://www.w3.org/2000/svg" width="64px" height="64px" xmlns:xlink="http://www.w3.org/1999/xlink" style="width:100%;height:100%;background-size:initial;background-repeat-y:initial;background-repeat-x:initial;background-position-y:initial;background-position-x:initial;background-origin:initial;background-image:initial;background-color:rgb(255, 255, 255);background-clip:initial;background-attachment:initial;animation-play-state:paused" ><g class="ldl-scale" style="transform-origin:50% 50% 0px;transform:scale(0.8);animation-play-state:paused" ><path stroke-miterlimit="10" stroke-linejoin="round" stroke-linecap="round" stroke-width="3" stroke="#849b87" fill="none" d="M45.597 62.608l.035-.512a1.795 1.795 0 0 0-.494-1.172L40.5 56.06a1.792 1.792 0 0 0-1.298-.556H36.44a1.265 1.265 0 0 1-1.265-1.265v-1.99a4.696 4.696 0 0 0 2.694-4.246v-4.798a4.66 4.66 0 0 0-4.659-4.659h-3.154a4.66 4.66 0 0 0-4.659 4.659v4.798a4.697 4.697 0 0 0 2.694 4.246v1.99c0 .699-.566 1.265-1.265 1.265h-2.763c-.49 0-.959.201-1.298.556l-4.638 4.864a1.795 1.795 0 0 0-.494 1.172l.035.512" style="stroke:rgb(48, 114, 174);animation-play-state:paused" ></path>
<g style="animation-play-state:paused" ><path d="M54.165 50.396h24.168" stroke-miterlimit="10" stroke-linejoin="round" stroke-linecap="round" stroke-width="3" stroke="#000" fill="none" style="stroke:rgb(0, 0, 0);animation-play-state:paused" ></path>
<path d="M54.165 41.622h24.168" stroke-miterlimit="10" stroke-linejoin="round" stroke-linecap="round" stroke-width="3" stroke="#000" fill="none" style="stroke:rgb(0, 0, 0);animation-play-state:paused" ></path>
<path d="M54.165 59.169H68.55" stroke-miterlimit="10" stroke-linejoin="round" stroke-linecap="round" stroke-width="3" stroke="#000" fill="none" style="stroke:rgb(0, 0, 0);animation-play-state:paused" ></path></g>
<path d="M9 26.729h82v46.542H9z" stroke-miterlimit="10" stroke-linejoin="round" stroke-linecap="round" stroke-width="3" stroke="#000" fill="none" style="stroke:rgb(0, 0, 0);animation-play-state:paused" ></path>
<metadata xmlns:d="https://loading.io/stock/" style="animation-play-state:paused" ><d:name style="animation-play-state:paused" >profile</d:name>


<d:tags style="animation-play-state:paused" >profile,namecard,business card,portfolio,self introduction,brief,user info</d:tags>


<d:license style="animation-play-state:paused" >by</d:license>


<d:slug style="animation-play-state:paused" >s33kke</d:slug></metadata></g><!-- generated by https://loading.io/ --></svg>