<?xml version="1.0" encoding="utf-8"?><svg viewBox="0 0 100 100" xmlns="http://www.w3.org/2000/svg" width="64px" height="64px" xmlns:xlink="http://www.w3.org/1999/xlink" style="width:100%;height:100%;background-size:initial;background-repeat-y:initial;background-repeat-x:initial;background-position-y:initial;background-position-x:initial;background-origin:initial;background-image:initial;background-color:rgb(255, 255, 255);background-clip:initial;background-attachment:initial;animation-play-state:paused" ><g class="ldl-scale" style="transform-origin:50% 50% 0px;transform:scale(0.8);animation-play-state:paused" ><path stroke-miterlimit="10" stroke-linecap="round" stroke-width="3" stroke="#323232" fill="none" d="M31.342 43.173a6.323 6.323 0 0 0 0-8.942l-5.676-5.676a6.323 6.323 0 0 0-8.942 0l.01-.01-2.905 2.905c-16.851 16.851 38.547 72.248 55.398 55.398l2.905-2.905-.01.01a6.323 6.323 0 0 0 0-8.942l-5.676-5.676a6.323 6.323 0 0 0-8.942 0l-2.288 2.288c-1.84 1.84-4.768 1.96-6.78.309-6.94-5.695-13.994-12.749-19.689-19.689-1.651-2.012-1.532-4.939.309-6.78l2.286-2.29z" style="stroke:rgb(50, 50, 50);animation-play-state:paused" ></path>
<g style="animation-play-state:paused" ><path stroke-miterlimit="10" stroke-linecap="round" stroke-width="3" stroke="#76a4bd" fill="none" d="M42.035 32.391c13.555 1.022 24.317 12.036 24.932 25.7" style="stroke:rgb(118, 164, 189);animation-play-state:paused" ></path>
<path stroke-miterlimit="10" stroke-linecap="round" stroke-width="3" stroke="#76a4bd" fill="none" d="M78.352 58.092C77.72 38.139 61.88 22.025 42.035 20.977" style="stroke:rgb(118, 164, 189);animation-play-state:paused" ></path>
<path stroke-miterlimit="10" stroke-linecap="round" stroke-width="3" stroke="#76a4bd" fill="none" d="M89.325 58.092C88.684 32.079 67.941 11.063 42.035 10" style="stroke:rgb(118, 164, 189);animation-play-state:paused" ></path></g>
<metadata xmlns:d="https://loading.io/stock/" style="animation-play-state:paused" ><d:name style="animation-play-state:paused" >phone</d:name>


<d:tags style="animation-play-state:paused" >phone,call center,operator,concall,information,contact,line,helpdesk,support,customer service</d:tags>


<d:license style="animation-play-state:paused" >by</d:license>


<d:slug style="animation-play-state:paused" >2nmu0k</d:slug></metadata></g><!-- generated by https://loading.io/ --></svg>